<?xml version="1.0" encoding="utf-8"?>
<!-- Generator: Adobe Illustrator 16.0.0, SVG Export Plug-In . SVG Version: 6.00 Build 0)  -->
<!DOCTYPE svg PUBLIC "-//W3C//DTD SVG 1.1//EN" "http://www.w3.org/Graphics/SVG/1.1/DTD/svg11.dtd">
<svg version="1.1" id="Layer_1" xmlns="http://www.w3.org/2000/svg" xmlns:xlink="http://www.w3.org/1999/xlink" x="0px" y="0px"
	 width="600px" height="600px" viewBox="0 0 600 600" enable-background="new 0 0 600 600" xml:space="preserve">
<g>
	<path d="M281.899,562.744C127.011,562.744,1,436.751,1,281.881C1,127.011,127.011,1,281.899,1
		c154.888,0,280.899,126.011,280.899,280.881C562.799,436.751,436.787,562.744,281.899,562.744z M281.899,38.288
		c-134.332,0-243.611,109.279-243.611,243.593s109.279,243.575,243.611,243.575s243.61-109.262,243.61-243.575
		S416.231,38.288,281.899,38.288z"/>
</g>
<g>
	<path d="M281.899,487.366c-113.321,0-205.522-92.183-205.522-205.485c0-113.339,92.201-205.558,205.522-205.558
		c113.32,0,205.521,92.219,205.521,205.558C487.421,395.184,395.22,487.366,281.899,487.366z M281.899,94.967
		c-103.052,0-186.878,83.844-186.878,186.914c0,103.016,83.826,186.842,186.878,186.842c103.052,0,186.878-83.826,186.878-186.842
		C468.777,178.811,384.951,94.967,281.899,94.967z"/>
</g>
</svg>
