<?xml version="1.0" encoding="utf-8"?>
<!-- Generator: Adobe Illustrator 16.0.0, SVG Export Plug-In . SVG Version: 6.00 Build 0)  -->
<!DOCTYPE svg PUBLIC "-//W3C//DTD SVG 1.1//EN" "http://www.w3.org/Graphics/SVG/1.1/DTD/svg11.dtd">
<svg version="1.1" id="Layer_2" xmlns="http://www.w3.org/2000/svg" xmlns:xlink="http://www.w3.org/1999/xlink" x="0px" y="0px"
	 width="600px" height="600px" viewBox="0 0 600 600" enable-background="new 0 0 600 600" xml:space="preserve">
<g>
	<path d="M495.923,524.376H65.953c-15.687,0-28.453-12.784-28.453-28.453V65.953C37.5,50.266,50.266,37.5,65.953,37.5h429.97
		c15.706,0,28.453,12.766,28.453,28.453v429.97C524.376,511.592,511.629,524.376,495.923,524.376z M74.901,486.974h412.072V74.901
		H74.901V486.974z"/>
</g>
<g>
	<path d="M430.324,446.431H131.55c-8.874,0-16.107-7.231-16.107-16.107V131.57c0-8.894,7.233-16.125,16.107-16.125h298.774
		c8.875,0,16.105,7.232,16.105,16.125v298.753C446.43,439.199,439.199,446.431,430.324,446.431z M134.144,427.729h293.585V134.144
		H134.144V427.729z"/>
</g>
<g>
	<polygon points="281.722,391.938 104.814,235.227 154.416,179.235 280.152,290.598 547.13,39.016 598.411,93.438 	"/>
</g>
</svg>
