<?xml version="1.0" encoding="utf-8"?>
<!-- Generator: Adobe Illustrator 16.0.0, SVG Export Plug-In . SVG Version: 6.00 Build 0)  -->
<!DOCTYPE svg PUBLIC "-//W3C//DTD SVG 1.1//EN" "http://www.w3.org/Graphics/SVG/1.1/DTD/svg11.dtd">
<svg version="1.1" id="Layer_1" xmlns="http://www.w3.org/2000/svg" xmlns:xlink="http://www.w3.org/1999/xlink" x="0px" y="0px"
	 width="600px" height="600px" viewBox="0 0 600 600" enable-background="new 0 0 600 600" xml:space="preserve">
<g>
	<path fill="#010101" d="M177.304,142.23c29.54-23.006,65.708-37.889,105.16-41.319V3.483
		c-66.241,3.858-126.647,29.418-174.226,69.681L177.304,142.23z"/>
	<path fill="#010101" d="M3.993,275.2h97.674c4.848-39.166,21.03-74.814,45.158-103.573l-68.89-68.891
		C36.444,149.411,9.445,209.244,3.993,275.2z"/>
	<path fill="#010101" d="M73.165,491.764l69.066-69.066c-23.006-29.541-37.889-65.709-41.319-105.161H3.483
		C7.341,383.778,32.902,444.186,73.165,491.764z"/>
	<path fill="#010101" d="M275.2,498.333c-39.166-4.849-74.813-21.029-103.573-45.158l-68.891,68.89
		c46.674,41.492,106.508,68.49,172.463,73.943V498.333z"/>
	<path fill="#010101" d="M422.695,457.771c-29.539,23.005-65.707,37.888-105.159,41.317v97.429
		c66.242-3.856,126.648-29.418,174.226-69.68L422.695,457.771z"/>
	<path fill="#010101" d="M596.007,324.801h-97.675c-4.849,39.165-21.029,74.812-45.158,103.574l68.89,68.888
		C563.556,450.59,590.554,390.755,596.007,324.801z"/>
	<path fill="#010101" d="M324.801,101.667c39.165,4.848,74.813,21.03,103.573,45.159l68.889-68.891
		C450.589,36.444,390.755,9.446,324.801,3.993V101.667z"/>
	<path fill="#010101" d="M526.836,108.238l-69.066,69.066c23.006,29.54,37.889,65.708,41.318,105.159h97.429
		C592.659,216.222,567.098,155.816,526.836,108.238z"/>
</g>
</svg>
